<svg xmlns="http://www.w3.org/2000/svg" width="512" height="512"><path fill="#00BBF9" d="m323 29 2.672.732C352.895 37.425 378.862 51.532 401 69l2.621 2.035c5.78 4.594 11.227 9.5 16.629 14.528l2.005 1.857c4.554 4.286 8.716 8.8 12.745 13.58l1.479 1.747C466.497 138.623 485.261 181.568 491 228l.286 2.157c7.174 60.773-11.281 123.036-48.53 171.201-3.616 4.578-7.49 8.893-11.463 13.162-1.956 2.115-3.819 4.272-5.668 6.48-34.839 39.873-90.05 63.625-141.625 70l-2.157.286c-60.756 7.172-123.046-11.285-171.2-48.53-4.58-3.616-8.893-7.49-13.163-11.463-2.115-1.956-4.272-3.819-6.48-5.668C51.127 390.786 27.375 335.575 21 284l-.286-2.157C15.53 237.92 23.884 192.686 43 153l1.207-2.512C53.375 131.649 64.92 114.518 79 99l1.705-1.887C87.134 90.027 93.53 83.008 101 77l3.184-2.656C139.736 44.947 182.225 26.658 228 21l2.157-.286c31.146-3.677 62.78-.02 92.843 8.286"/><path fill="#FCFEFE" d="M175 157c5.113 1.84 8.104 4.4 11 9 1.42 7.373-1.48 13.194-4.625 19.688-3.604 7.848-6.638 15.59-8.875 23.937l-.698 2.577c-3.239 12.658-4.18 24.988-4.114 37.986l.006 2.34c.1 22.32 2.786 46 18.556 63.285 6.284 5.932 14.583 9.58 23.21 9.468 8.066-.893 15.04-4.927 20.095-11.215 6.516-9.094 9.588-19.084 9.54-30.208l-.009-4.35-.009-2.311c-.011-4.065.01-8.13.025-12.195.018-5.162.027-10.323-.002-15.484-.023-4.182-.011-8.363.023-12.544a299 299 0 0 0-.018-4.762c-.152-13.94-.152-13.94 4.2-19.123 3.567-3.414 6.512-4.97 11.445-5.464 4.715.132 8.392 1.715 12.25 4.375 4.387 4.725 5.124 7.35 5.142 13.722l.01 2.095q.011 2.259.017 4.516.012 3.591.041 7.182c.052 6.808.1 13.617.116 20.425.01 4.165.04 8.33.081 12.495q.019 2.367.015 4.732c-.015 14.536 2.237 28.344 12.168 39.642 5.42 5.114 12.441 8.295 19.91 8.691 7.995-.437 14.887-3.946 20.629-9.41C336.172 303.756 340.742 288.019 343 272l.281-1.97c3.805-29.705.391-62.042-14.219-88.53-2.697-5.083-2.875-9.858-2.062-15.5 1.542-4.262 4.08-6.19 8.105-8.273 4.182-1.604 7.662-1.12 11.832.21 18.628 12.546 26.353 39.846 30.61 60.588 1.794 9.794 1.704 19.723 1.748 29.648q.017 2.675.062 5.35C379.82 281.415 373.363 311.86 354 333l-2.012 2.324c-10.593 11.533-26.23 18.948-41.836 19.914-15.74.416-30.114-3.482-41.964-14.488-5.104-5.542-10.12-12.168-11.188-19.75-3.131.684-3.131.684-4.324 3.188L251.313 327c-7.795 14.748-19.786 21.846-35.313 27-14.511 4.049-30.495.432-43.375-6.75-20.7-13.568-32.14-34.518-37.5-58.187-2.376-11.547-2.577-23.004-2.562-34.75l-.001-2.588c.029-10.418.593-20.452 2.438-30.725l.41-2.351c3.67-19.641 12.923-48.5 30.113-60.395 3.385-1.714 5.724-1.65 9.477-1.254"/></svg>