<?xml version="1.0" encoding="UTF-8"?>
<svg version="1.1" xmlns="http://www.w3.org/2000/svg" width="512" height="512">
<path d="M0 0 C0.88187988 0.24169922 1.76375977 0.48339844 2.67236328 0.73242188 C29.89512149 8.42547015 55.86244103 22.53281212 78 40 C78.86496094 40.67160156 79.72992188 41.34320313 80.62109375 42.03515625 C86.40023606 46.62927384 91.84769052 51.53434955 97.25 56.5625 C98.24241699 57.48216553 98.24241699 57.48216553 99.25488281 58.42041016 C103.80871087 62.70603029 107.9708489 67.22010895 112 72 C112.48807129 72.57661377 112.97614258 73.15322754 113.47900391 73.74731445 C143.49736799 109.62253937 162.26052824 152.56820002 168 199 C168.0942627 199.71172363 168.18852539 200.42344727 168.28564453 201.15673828 C175.46031627 261.92967331 157.004662 324.19273487 119.75634766 372.3581543 C116.13951982 376.93630064 112.26629869 381.25051164 108.29296875 385.51953125 C106.33731934 387.63509748 104.47434119 389.79243291 102.625 392 C67.78644329 431.87349963 12.57434363 455.62485433 -39 462 C-39.71172363 462.0942627 -40.42344727 462.18852539 -41.15673828 462.28564453 C-101.91334386 469.45838846 -164.20285523 451.00069982 -212.35766602 413.7565918 C-216.93615061 410.13990815 -221.25038874 406.26641308 -225.51953125 402.29296875 C-227.63509748 400.33731934 -229.79243291 398.47434119 -232 396.625 C-271.87349963 361.78644329 -295.62485433 306.57434363 -302 255 C-302.0942627 254.28827637 -302.18852539 253.57655273 -302.28564453 252.84326172 C-307.47113455 208.91965668 -299.11539897 163.68620262 -280 124 C-279.60184082 123.17097168 -279.20368164 122.34194336 -278.79345703 121.48779297 C-269.62495323 102.64913265 -258.07998937 85.51814315 -244 70 C-243.43748535 69.37722168 -242.8749707 68.75444336 -242.29541016 68.11279297 C-235.86608716 61.0268139 -229.46996563 54.0075914 -222 48 C-220.93840994 47.11505354 -219.87725507 46.22958491 -218.81640625 45.34375 C-183.26351526 15.94749665 -140.77485148 -2.34173417 -95 -8 C-94.28827637 -8.0942627 -93.57655273 -8.18852539 -92.84326172 -8.28564453 C-61.69676081 -11.96270768 -30.06353282 -8.30511973 0 0 Z " fill="#00BBF9" transform="translate(323,29)"/>
<path d="M0 0 C5.11280275 1.84060899 8.10397971 4.40043837 11 9 C12.41932366 16.37280595 9.51941212 22.19404297 6.375 28.6875 C2.77120967 36.536066 -0.2634541 44.27770882 -2.5 52.625 C-2.73025879 53.47537842 -2.96051758 54.32575684 -3.19775391 55.2019043 C-6.43670443 67.86025174 -7.37767129 80.19001031 -7.3125 93.1875 C-7.31034485 93.96002106 -7.3081897 94.73254211 -7.30596924 95.5284729 C-7.20600491 117.84738797 -4.5195492 141.52877863 11.25 158.8125 C17.53352267 164.74537966 25.83345532 168.39366019 34.4609375 168.28125 C42.52624165 167.38786246 49.49908914 163.35414793 54.5546875 157.06640625 C61.07140169 147.9721857 64.14334119 137.98165021 64.09423828 126.8581543 C64.09145327 125.40834066 64.08878319 123.9585268 64.08621216 122.50871277 C64.08163687 121.36420182 64.08163687 121.36420182 64.07696915 120.19656944 C64.06556328 116.13165171 64.08614055 112.06684189 64.1015625 108.00195312 C64.1198354 102.84036797 64.1285479 97.67938124 64.09960938 92.51782227 C64.0770059 88.33595668 64.08857921 84.15538495 64.12261581 79.97361183 C64.12936048 78.38651718 64.12377263 76.79931751 64.10525894 75.21231651 C63.95309047 61.27112922 63.95309047 61.27112922 68.30419922 56.08911133 C71.87188758 52.67549965 74.81651928 51.11834807 79.75 50.625 C84.46491924 50.75694737 88.14197474 52.3395879 92 55 C96.38708579 59.72455393 97.12415616 62.35074469 97.1418457 68.72192383 C97.14532013 69.41334473 97.14879456 70.10476562 97.15237427 70.81713867 C97.15973615 72.3225556 97.16507923 73.82798342 97.16866493 75.33341408 C97.17584227 77.72738473 97.19152375 80.1211518 97.21000671 82.51506042 C97.26237671 89.32340486 97.31032151 96.13164461 97.32592773 102.94018555 C97.33610037 107.10542027 97.36566792 111.27015187 97.40724754 115.43518639 C97.41944443 117.01253105 97.42469982 118.58994721 97.42244911 120.16733742 C97.40683129 134.70291385 99.65863638 148.51093033 109.58984375 159.80859375 C115.01083385 164.92345735 122.03097222 168.10411514 129.5 168.5 C137.49538504 168.06286255 144.38746292 164.55403428 150.12890625 159.08984375 C161.17174969 146.75597895 165.74174285 131.01900395 168 115 C168.0928125 114.34990967 168.185625 113.69981934 168.28125 113.0300293 C172.08609353 83.32536776 168.67234214 50.98809907 154.0625 24.5 C151.36541317 19.41737103 151.18742071 14.64240453 152 9 C153.54153894 4.73809823 156.08094481 2.81084227 160.10546875 0.7265625 C164.28685018 -0.87701883 167.76653858 -0.3936579 171.9375 0.9375 C190.56514496 13.48264865 198.28973878 40.78314666 202.54663086 61.52539062 C204.34083852 71.31865333 204.25112943 81.24754534 204.29516602 91.17285156 C204.30660768 92.95646141 204.32693327 94.74003918 204.35668945 96.5234375 C204.81965244 124.41501768 198.36269529 154.86023134 179 176 C178.33613281 176.76699219 177.67226563 177.53398437 176.98828125 178.32421875 C166.39535965 189.85699292 150.75805521 197.27183617 135.15234375 198.23828125 C119.41228867 198.65352226 105.03796271 194.7558863 93.1875 183.75 C88.08442318 178.20808365 83.06745483 171.58166633 82 164 C78.86862549 164.68390114 78.86862549 164.68390114 77.67578125 167.1875 C77.22589844 168.115625 76.77601563 169.04375 76.3125 170 C68.51798851 184.7484384 56.52711545 191.84559405 41 197 C26.48859882 201.04867546 10.50516463 197.4323971 -2.375 190.25 C-23.07508209 176.68187897 -34.51498998 155.73218083 -39.875 132.0625 C-42.25112122 120.51587955 -42.45180122 109.05879514 -42.4375 97.3125 C-42.43772156 96.45850616 -42.43794312 95.60451233 -42.43817139 94.72463989 C-42.40937013 84.30697532 -41.84504283 74.27343707 -40 64 C-39.86489014 63.22406494 -39.72978027 62.44812988 -39.59057617 61.64868164 C-35.92012219 42.00762211 -26.6674061 13.14911846 -9.4765625 1.25390625 C-6.09202684 -0.45971512 -3.75318957 -0.39507259 0 0 Z " fill="#FCFEFE" transform="translate(175,157)"/>
</svg>
